<svg width="32" height="32" viewBox="0 0 32 32" fill="none" xmlns="http://www.w3.org/2000/svg">
<circle cx="11.5" cy="11.5" r="9.5" fill="#FFFDFD" stroke="#FFFCFC" stroke-width="2"/>
<path d="M12.0004 9.6901C11.441 9.68415 10.8924 9.84473 10.4245 10.1514C9.95664 10.4581 9.59053 10.897 9.37278 11.4123C9.15503 11.9276 9.09547 12.4961 9.20168 13.0453C9.30789 13.5946 9.57507 14.0999 9.96924 14.4968C10.3634 14.8938 10.8668 15.1646 11.4152 15.2748C11.9637 15.3849 12.5326 15.3294 13.0495 15.1153C13.5663 14.9013 14.0078 14.5383 14.3178 14.0726C14.6278 13.6069 14.7923 13.0595 14.7904 12.5001C14.7917 12.1324 14.7206 11.768 14.5811 11.4278C14.4416 11.0876 14.2364 10.7782 13.9774 10.5173C13.7183 10.2563 13.4103 10.049 13.0711 9.90706C12.7319 9.76514 12.3681 9.69141 12.0004 9.6901Z" fill="#2AABED"/>
<path d="M12 0C9.62663 0 7.30655 0.703788 5.33316 2.02236C3.35977 3.34094 1.8217 5.21509 0.913451 7.4078C0.00519943 9.60051 -0.232441 12.0133 0.230582 14.3411C0.693605 16.6689 1.83649 18.8071 3.51472 20.4853C5.19295 22.1635 7.33115 23.3064 9.65892 23.7694C11.9867 24.2324 14.3995 23.9948 16.5922 23.0866C18.7849 22.1783 20.6591 20.6402 21.9776 18.6668C23.2962 16.6935 24 14.3734 24 12C24 8.8174 22.7357 5.76516 20.4853 3.51472C18.2349 1.26428 15.1826 0 12 0ZM17.57 15.63C19.04 15.63 19.8 13.78 19.8 11.96C19.8023 10.1837 19.1386 8.47099 17.94 7.16C17.1043 6.33731 16.1061 5.69805 15.0092 5.28307C13.9124 4.8681 12.741 4.68654 11.57 4.75C9.60555 4.77636 7.73173 5.58073 6.3595 6.98671C4.98727 8.39268 4.22865 10.2855 4.25001 12.25C4.22056 14.2049 4.96699 16.0918 6.32584 17.4975C7.6847 18.9032 9.54523 19.7132 11.5 19.75C12.7714 19.7478 14.0187 19.4023 15.11 18.75C15.191 18.6733 15.288 18.6156 15.3941 18.5811C15.5002 18.5466 15.6126 18.5362 15.7232 18.5507C15.8338 18.5651 15.9398 18.6041 16.0334 18.6647C16.1271 18.7253 16.206 18.806 16.2645 18.901C16.323 18.996 16.3596 19.1028 16.3716 19.2137C16.3836 19.3246 16.3707 19.4367 16.3339 19.542C16.297 19.6473 16.2372 19.743 16.1587 19.8223C16.0801 19.9015 15.985 19.9622 15.88 20C14.5559 20.791 13.0424 21.2091 11.5 21.21C9.14741 21.1731 6.90537 20.2051 5.26523 18.5181C3.62508 16.8311 2.7206 14.5627 2.75001 12.21C2.73132 9.84846 3.64884 7.57566 5.30181 5.88896C6.95477 4.20227 9.20857 3.23902 11.57 3.21C12.9451 3.14619 14.3182 3.37429 15.5988 3.8793C16.8794 4.38431 18.0386 5.15477 19 6.14C20.478 7.73352 21.2995 9.82656 21.3 12C21.3 15 19.73 17.17 17.57 17.17C17.0906 17.2047 16.611 17.1063 16.184 16.8857C15.757 16.6652 15.3992 16.331 15.15 15.92C15.1315 15.8894 15.1068 15.8629 15.0775 15.8423C15.0483 15.8216 15.0151 15.8072 14.98 15.8C14.9436 15.7905 14.9054 15.7901 14.8688 15.7988C14.8322 15.8076 14.7982 15.8251 14.77 15.85C14.0046 16.4984 13.0332 16.8529 12.03 16.85C10.9215 16.7966 9.87611 16.3187 9.11049 15.5153C8.34487 14.712 7.91779 13.6448 7.91779 12.535C7.91779 11.4252 8.34487 10.358 9.11049 9.55467C9.87611 8.7513 10.9215 8.27338 12.03 8.22C12.8844 8.22108 13.7182 8.48272 14.42 8.97C14.4592 8.99385 14.5041 9.00646 14.55 9.00646C14.5959 9.00646 14.6408 8.99385 14.68 8.97C14.7221 8.95072 14.7577 8.9197 14.7825 8.88067C14.8073 8.84164 14.8204 8.79626 14.82 8.75V8.13C14.82 7.93109 14.899 7.74032 15.0397 7.59967C15.1803 7.45902 15.3711 7.38 15.57 7.38C15.7689 7.38 15.9597 7.45902 16.1003 7.59967C16.241 7.74032 16.32 7.93109 16.32 8.13V14.61C16.32 15.28 16.74 15.63 17.57 15.63Z" fill="#2AABED"/>
</svg>
