<svg width="110" height="110" viewBox="0 0 14 14" fill="none" xmlns="http://www.w3.org/2000/svg">
<path d="M12.2931 0.0281334C12.4681 -0.0468666 12.6681 0.0331333 12.7431 0.208133C12.7781 0.288133 12.7781 0.373133 12.7481 0.448133C12.7281 0.518133 12.7231 0.588133 12.7531 0.653133L12.9281 1.03813L12.6031 1.17813L12.4331 0.788133C12.4011 0.725287 12.348 0.67572 12.2831 0.648133C12.2071 0.614859 12.1464 0.55416 12.1131 0.478133C12.0381 0.303133 12.1181 0.103133 12.2931 0.0281334ZM11.9531 0.568133C11.9355 0.526663 11.9099 0.489084 11.8777 0.457562C11.8455 0.426041 11.8074 0.401199 11.7656 0.384467C11.7238 0.367736 11.679 0.359446 11.634 0.360075C11.589 0.360705 11.5445 0.37024 11.5031 0.388133C11.3281 0.463133 11.2481 0.663133 11.3231 0.838133C11.3581 0.918133 11.4181 0.973133 11.4931 1.00813C11.5581 1.03813 11.6131 1.08313 11.6431 1.14813L11.8131 1.53813L12.1381 1.39813L11.9681 1.00813C11.9416 0.942689 11.9398 0.869795 11.9631 0.803133C11.9831 0.733133 11.9831 0.648133 11.9531 0.568133ZM11.1581 0.928133C11.1405 0.886663 11.1149 0.849084 11.0827 0.817562C11.0505 0.786041 11.0124 0.761199 10.9706 0.744467C10.9288 0.727736 10.884 0.719446 10.839 0.720075C10.794 0.720705 10.7495 0.73024 10.7081 0.748133C10.5331 0.823133 10.4531 1.02313 10.5281 1.19813C10.5631 1.27813 10.6231 1.33313 10.6981 1.36813C10.7631 1.39813 10.8181 1.44313 10.8481 1.50813L11.0181 1.89813L11.3431 1.75813L11.1731 1.36813C11.1587 1.33601 11.1509 1.30133 11.15 1.26614C11.1491 1.23094 11.1553 1.19592 11.1681 1.16313C11.1948 1.08637 11.1912 1.00236 11.1581 0.928133Z" fill="#D3D3D3"/>
<path d="M7.26266 10.5381C7.2921 10.2036 7.42943 9.88761 7.65397 9.63782C7.8785 9.38803 8.1781 9.21794 8.50766 9.15314C8.78266 9.09814 9.05266 9.00314 9.31266 8.87314C9.69266 8.68314 9.84766 8.21814 9.65766 7.83814C9.56585 7.65544 9.40539 7.51656 9.21141 7.4519C9.01743 7.38724 8.80573 7.40207 8.62266 7.49314C7.97766 7.81814 7.19766 7.69314 6.68266 7.17814C6.37018 6.86454 6.1939 6.4404 6.19203 5.9977C6.19015 5.55499 6.36284 5.12938 6.67266 4.81314C6.97266 4.50814 6.98766 4.01814 6.68766 3.71314C6.38766 3.40814 5.89266 3.40814 5.59266 3.70814C5.12766 4.17314 4.83266 4.74814 4.71266 5.35314C4.57766 6.03314 4.00266 6.52814 3.31266 6.59314C2.48266 6.66814 1.67766 7.02314 1.04766 7.65814C-0.367339 9.08814 -0.347339 11.4431 1.09766 12.8431C2.52266 14.2281 4.80266 14.2131 6.21266 12.8031C6.81801 12.195 7.18977 11.3931 7.26266 10.5381Z" fill="#CA0B4A"/>
<path d="M6.69221 8.02313C6.53721 7.96813 6.39221 7.87813 6.26721 7.75313C6.19261 7.67774 6.12716 7.59383 6.07221 7.50313C5.98797 7.36598 5.93346 7.21267 5.91221 7.05313C5.88221 6.85813 5.76721 6.69313 5.60221 6.59813C5.53221 6.55813 5.45221 6.53313 5.37221 6.52313C5.13721 6.49813 4.90721 6.60813 4.78221 6.81313C4.62721 7.06813 4.34721 7.23313 4.02221 7.24813C3.47721 7.26813 2.95721 7.47313 2.56221 7.87313L2.55221 7.88313C2.05721 8.39313 2.06721 9.20813 2.56721 9.70813L3.69221 10.8331C4.16221 11.3031 3.80221 11.9381 3.79721 12.3831C3.79721 12.4631 3.81221 12.5481 3.84221 12.6231C3.97721 12.9731 4.38221 13.1381 4.73221 12.9981C5.10721 12.8481 5.44721 12.6281 5.73721 12.3331C5.99221 12.0781 6.19221 11.7881 6.34221 11.4681C6.48221 11.1581 6.54221 10.8231 6.60221 10.4831C6.68221 10.0381 6.90221 9.62813 7.26221 9.28813C7.53221 8.99313 7.82221 8.82813 8.23221 8.73313C8.31721 8.71313 8.50221 8.64313 8.57721 8.59313C8.70721 8.50813 8.73721 8.40313 8.70221 8.31313C8.59721 8.01313 8.34221 8.10313 8.14721 8.13813C7.81221 8.20313 7.52721 8.16813 7.43721 8.15813C7.41221 8.15313 7.39221 8.15313 7.36721 8.14813C7.24221 8.12813 6.86221 8.08313 6.69221 8.02313Z" fill="#F4F4F4"/>
<path d="M3.68309 11.3831L2.47809 10.1781C2.42809 10.1281 2.34809 10.1281 2.29809 10.1781L1.76309 10.7031C1.71309 10.7531 1.71309 10.8331 1.76309 10.8831L2.96809 12.0881C3.01809 12.1381 3.09809 12.1381 3.14809 12.0881L3.67809 11.5581C3.73309 11.5131 3.73309 11.4331 3.68309 11.3831Z" fill="#9B9B9B"/>
<path d="M5.10312 7.98312L5.86812 8.74812C5.98812 8.86812 5.98812 9.05812 5.86812 9.17312C5.8112 9.22841 5.73498 9.25933 5.65562 9.25933C5.57627 9.25933 5.50005 9.22841 5.44312 9.17312L4.67812 8.40812C4.62284 8.3512 4.59191 8.27497 4.59191 8.19562C4.59191 8.11627 4.62284 8.04004 4.67812 7.98312C4.73505 7.92784 4.81127 7.89691 4.89062 7.89691C4.96998 7.89691 5.0462 7.92784 5.10312 7.98312ZM4.09812 8.99312L4.86312 9.75812C4.97812 9.87312 4.97812 10.0631 4.86312 10.1831C4.8062 10.2384 4.72998 10.2693 4.65062 10.2693C4.57127 10.2693 4.49505 10.2384 4.43812 10.1831L3.67312 9.41812C3.61784 9.3612 3.58691 9.28497 3.58691 9.20562C3.58691 9.12627 3.61784 9.05004 3.67312 8.99312C3.73005 8.93784 3.80627 8.90691 3.88562 8.90691C3.96498 8.90691 4.0412 8.93784 4.09812 8.99312Z" fill="#D3D3D3"/>
<path d="M11.5273 3.26813L11.2498 2.50012L10.5873 2.32812L5.82227 7.09313C5.69727 7.21813 5.69727 7.41813 5.82227 7.53813L6.31727 8.03312C6.44227 8.15812 6.64227 8.15812 6.76227 8.03312L11.5273 3.26813Z" fill="#635994"/>
<path d="M12.0979 3.20313L12.6379 2.29813C12.6979 2.19813 12.8179 2.15313 12.9279 2.19813C13.2129 2.30813 13.5479 2.24813 13.7679 2.00813C14.0379 1.71813 14.0429 1.26313 13.7779 0.973132C13.5179 0.688132 13.1479 0.683132 12.7929 0.843132L10.7429 1.78813C10.5179 1.91313 10.4779 2.21813 10.6579 2.40313L11.5079 3.25313C11.6779 3.41813 11.9579 3.39813 12.0979 3.20313Z" fill="#CA0B4A"/>
</svg>
