<svg width="100" height="100" viewBox="0 0 60 60" fill="none" xmlns="http://www.w3.org/2000/svg">
<path d="M54.4347 -6.29526e-06C54.1901 -6.29526e-06 53.957 0.115654 53.7123 0.360855L51.9813 2.09576L51.2612 1.37173L50.2502 2.31089L51.0442 3.10663L50.0333 4.04811L49.3132 3.32407L48.3023 4.33726L49.0247 5.05898L47.3652 6.79389C46.869 7.29123 46.869 7.7423 47.3652 8.23964L37.7014 17.9274C35.5457 16.1994 33.2469 14.8901 31.0658 14.2401C27.0082 13.0372 23.4031 13.9047 20.6057 16.6967C19.3709 17.9343 18.6139 19.4448 18.2977 21.2514C17.7945 24.18 15.2165 26.4654 12.1675 26.6736C8.84164 26.898 5.91966 28.2373 3.72933 30.4326C-2.05001 36.2248 -1.00216 46.7337 6.10892 53.8538C10.148 57.9019 15.2949 59.9977 20.031 59.9977C23.6362 59.9977 26.9806 58.7416 29.4779 56.2387C31.6705 54.0412 33.0045 51.115 33.2284 47.7816C33.4361 44.7282 35.6449 42.142 38.5669 41.6354C40.3695 41.3208 41.9482 40.5621 43.183 39.3222C45.9688 36.5302 46.8343 32.9077 45.6342 28.8434C45.2372 27.4855 44.5263 26.1045 43.6885 24.7213L40.2957 28.1194C40.658 28.8133 40.965 29.4841 41.1635 30.1434C41.8744 32.5468 41.4958 34.5061 39.9356 36.0699C39.3771 36.6227 38.7123 36.9281 37.8445 37.083C32.8499 37.9505 28.9562 42.341 28.6123 47.4925C28.4692 49.6877 27.6199 51.5869 26.2327 52.9863C22.2468 56.9697 14.7387 55.9241 9.42788 50.5991C4.11708 45.2787 2.99998 37.6683 6.97443 33.6849C8.37311 32.2924 10.2657 31.4434 12.456 31.3C17.596 30.9553 21.9675 27.053 22.8422 22.0472C22.9969 21.1797 23.2946 20.5112 23.8532 19.9514C24.9264 18.8758 26.152 18.3599 27.6037 18.3599C28.2615 18.3599 29.0186 18.4964 29.7664 18.7208C31.2204 19.1557 32.8407 20.0139 34.3824 21.1797L26.6667 28.9151C25.8206 28.72 24.9416 28.7186 24.0949 28.911C23.2483 29.1034 22.4558 29.4846 21.7765 30.0263C21.0971 30.5681 20.5484 31.2563 20.1711 32.0399C19.7937 32.8235 19.5976 33.6823 19.5971 34.5524C19.5971 37.74 22.1844 40.3331 25.3672 40.3331C28.55 40.3331 31.1373 37.74 31.1373 34.5501C31.1373 34.1985 31.0566 33.8723 30.9919 33.5369L51.9813 12.4289C52.4775 12.9262 53.0014 12.9262 53.4977 12.4289L55.2287 10.694L55.9488 11.418L56.8859 10.4788L56.1658 9.75479L57.1744 8.74392L57.6798 9.75479L58.6169 8.74392L57.8968 8.01989L59.6278 6.28498C60.1241 5.78764 60.1241 5.26486 59.6278 4.76752L55.2264 0.358541C55.0196 0.139386 54.7355 0.0122072 54.4347 -6.29526e-06ZM54.2178 2.81517L55.2287 3.82835L50.7557 8.23964L49.8186 7.30048L54.2178 2.81517ZM56.1658 4.55008L57.1744 5.56326L52.7037 9.97224L51.7643 8.95905L56.1658 4.55008ZM14.044 38.4571L10.7989 41.7095L18.2261 49.1534L21.4713 45.901L14.044 38.4571Z" fill="url(#paint0_linear_369_12)" fill-opacity="0.78"/>
<defs>
<linearGradient id="paint0_linear_369_12" x1="71.8122" y1="-31.1445" x2="46.7524" y2="74.7341" gradientUnits="userSpaceOnUse">
<stop offset="0.406655" stop-color="#764EBB"/>
<stop offset="0.660706" stop-color="#01FF2F"/>
<stop offset="0.86267" stop-color="#754CD5"/>
</linearGradient>
</defs>
</svg>
