<svg width="120" height="120" viewBox="0 0 13 13" fill="none" xmlns="http://www.w3.org/2000/svg">
<path d="M11.7924 1.16825e-05C11.7394 1.16825e-05 11.6889 0.0250118 11.6359 0.0780118L11.2609 0.453012L11.1049 0.296512L10.8859 0.499512L11.0579 0.671512L10.8389 0.875012L10.6829 0.718512L10.4639 0.937512L10.6204 1.09351L10.2609 1.46851C10.1534 1.57601 10.1534 1.67351 10.2609 1.78101L8.1674 3.87501C7.7004 3.50151 7.2024 3.21851 6.7299 3.07801C5.8509 2.81801 5.0699 3.00551 4.4639 3.60901C4.1964 3.87651 4.0324 4.20301 3.9639 4.59351C3.8549 5.22651 3.2964 5.72051 2.6359 5.76551C1.9154 5.81401 1.2824 6.10351 0.807898 6.57801C-0.444102 7.83001 -0.217102 10.1015 1.3234 11.6405C2.1984 12.5155 3.3134 12.9685 4.3394 12.9685C5.1204 12.9685 5.8449 12.697 6.3859 12.156C6.8609 11.681 7.1499 11.0485 7.1984 10.328C7.2434 9.66801 7.7219 9.10901 8.3549 8.99951C8.7454 8.93151 9.0874 8.76751 9.3549 8.49951C9.9584 7.89601 10.1459 7.11301 9.8859 6.23451C9.7999 5.94101 9.6459 5.64251 9.4644 5.34351L8.7294 6.07801C8.8079 6.22801 8.8744 6.37301 8.9174 6.51551C9.0714 7.03501 8.9894 7.45851 8.6514 7.79651C8.5304 7.91601 8.3864 7.98201 8.1984 8.01551C7.1164 8.20301 6.2729 9.15201 6.1984 10.2655C6.1674 10.74 5.9834 11.1505 5.6829 11.453C4.8194 12.314 3.1929 12.088 2.0424 10.937C0.891897 9.78701 0.649898 8.14201 1.5109 7.28101C1.8139 6.98001 2.2239 6.79651 2.6984 6.76551C3.8119 6.69101 4.7589 5.84751 4.9484 4.76551C4.9819 4.57801 5.0464 4.43351 5.1674 4.31251C5.3999 4.08001 5.6654 3.96851 5.9799 3.96851C6.1224 3.96851 6.2864 3.99801 6.4484 4.04651C6.7634 4.14051 7.1144 4.32601 7.4484 4.57801L5.7769 6.25001C5.59362 6.20784 5.40319 6.20754 5.21978 6.24913C5.03636 6.29071 4.86469 6.37311 4.71752 6.49021C4.57035 6.6073 4.45147 6.75607 4.36973 6.92544C4.28799 7.09482 4.24549 7.28044 4.2454 7.46851C4.2454 8.15751 4.8059 8.71801 5.4954 8.71801C6.1849 8.71801 6.7454 8.15751 6.7454 7.46801C6.7454 7.39201 6.7279 7.32151 6.7139 7.24901L11.2609 2.68651C11.3684 2.79401 11.4819 2.79401 11.5894 2.68651L11.9644 2.31151L12.1204 2.46801L12.3234 2.26501L12.1674 2.10851L12.3859 1.89001L12.4954 2.10851L12.6984 1.89001L12.5424 1.73351L12.9174 1.35851C13.0249 1.25101 13.0249 1.13801 12.9174 1.03051L11.9639 0.0775117C11.9191 0.0301414 11.8575 0.00265163 11.7924 1.16825e-05ZM11.7454 0.608512L11.9644 0.827512L10.9954 1.78101L10.7924 1.57801L11.7454 0.608512ZM12.1674 0.983512L12.3859 1.20251L11.4174 2.15551L11.2139 1.93651L12.1674 0.983512ZM3.0424 8.31251L2.3394 9.01551L3.9484 10.6245L4.6514 9.92151L3.0424 8.31251Z" fill="#F4FAF9"/>
</svg>
