<?xml version="1.0" encoding="UTF-8"?>
<svg id="_Слой_1" data-name="Слой 1" xmlns="http://www.w3.org/2000/svg" viewBox="0 0 770.53 733.29">
  <defs>
    <style>
      .cls-1 {
        fill: #2fac66;
      }
    </style>
  </defs>
  <path class="cls-1" d="M3.12,531.81s7-36,60-77,104-31,109-85,76-116,133-154l7,5s-140,93-131,153-18,47-41,53-101,26-124,105-13,5-13,5"/>
  <path class="cls-1" d="M18.5,187.31c-2.29-5.78-1.02-11.98,2.4-17.03,3.74-5.53,9.99-8.65,16.38-10.02,14.9-3.2,29.76,2.85,44.09,6.14,12.85,2.95,26.4,4.56,39.46,2.05,6.36-1.22,12.59-3.55,18.01-7.13s9.82-8.31,13.97-13.25,8.08-10.02,12.95-14.23c5.34-4.61,11.77-7.26,18.65-8.57s14.47-1.36,21.67-1.07,15.01,1.12,22.44,2.28c30.06,4.73,59.13,14.56,89.47,17.67,15.4,1.58,30.76,.93,45.99-1.82s31.17-7.62,46.35-12.74c3.77-1.27,7.54-2.57,11.3-3.87,3.02-1.04,1.72-5.87-1.33-4.82-30.55,10.53-61.61,20.81-94.36,18.89-30.98-1.81-60.65-11.95-91.06-17.3-14.94-2.63-30.54-4.53-45.71-2.93-7.09,.75-14.15,2.4-20.37,5.98-5.68,3.27-10.3,8.03-14.52,12.98s-8.34,10.39-13.31,14.84-10.87,7.51-17.26,9.26c-12.94,3.56-26.85,2.07-39.77-.78-14.87-3.29-29.64-9.17-45.12-6.94-13.02,1.88-25.11,10.65-26.45,24.51-.3,3.11,.15,6.3,1.3,9.21s6.01,1.67,4.82-1.33h0Z"/>
  <path class="cls-1" d="M5.16,168.98c-1.4-12.97,7.6-24.61,18.96-29.92,14.2-6.63,30.75-4.02,45.27-.02,7.61,2.09,15.18,4.42,23.06,5.27,6.23,.67,12.53,.15,18.59-1.46,11.01-2.93,20.85-9.08,30.15-15.48s18.62-13.57,28.85-18.86c4.89-2.53,10.02-4.58,15.4-5.76,6.73-1.47,13.55-1.18,20.3,.09,8.3,1.56,16.47,3.82,24.7,5.71s16.72,3.74,25.11,5.47c16.64,3.44,33.35,6.55,50.13,9.27,8.3,1.35,16.66,2.56,25.08,2.7s16.32-.9,24.28-2.65c16-3.51,31.5-9.59,46.62-15.79,3.84-1.58,7.67-3.2,11.48-4.86,2.94-1.28,.4-5.59-2.52-4.32-15.49,6.75-31.36,13.13-47.62,17.78-7.87,2.25-15.92,3.99-24.09,4.59s-16.88-.06-25.23-1.26c-34.26-4.91-67.95-12.75-101.66-20.44-7.42-1.69-15.03-2.91-22.65-2-5.61,.67-10.98,2.24-16.17,4.45-10.69,4.55-20.14,11.44-29.58,18.09s-18.88,13.34-29.71,17.13c-5.47,1.91-11.16,2.99-16.97,2.87-8.22-.17-16.17-2.58-24.02-4.78-14.86-4.16-30.86-7.11-45.94-2.2-12.33,4.01-23.33,13.99-26.25,26.96-.69,3.09-.9,6.25-.56,9.4s5.35,3.2,5,0h0Z"/>
  <path class="cls-1" d="M30.89,191.1c-.3-5.59,4.55-9.3,9.34-11.09,6.1-2.27,13.05-1.95,19.38-.94,14.37,2.29,27.78,8.57,42.21,10.61,7.93,1.12,15.9,.79,23.84-.13,7.27-.84,14.6-1.81,21.77-3.26,6.54-1.32,13.12-3.34,18.73-7.06s9.81-9.09,14.03-14.33,8.64-10,14.63-13.2,12.76-4.82,19.48-5.29c15.69-1.11,31.12,3.62,46.15,7.48s31.17,8.4,46.93,11.79c7.62,1.64,15.35,2.92,23.13,3.38s16.31-.12,24.41-1.15c31.96-4.08,63.75-10.75,94.99-18.56,3.97-.99,7.94-2.01,11.9-3.06,3.11-.82,1.79-5.64-1.33-4.82-31.95,8.41-64.33,15.18-96.98,20.2-8.16,1.25-16.36,2.36-24.62,2.54s-16.41-.7-24.49-2.21c-16.06-2.99-31.86-7.61-47.67-11.67-26.86-6.9-62.01-18.36-84.59,4.71-4.72,4.82-8.4,10.54-13.13,15.35s-10.96,8.01-17.67,9.84c-7.12,1.94-14.53,2.85-21.83,3.83-8.06,1.08-16.24,1.81-24.36,1.01-14.81-1.45-28.51-8.1-43.11-10.65-11.34-1.98-27.3-2.2-34.24,9.04-1.41,2.29-2.07,4.94-1.92,7.62,.17,3.2,5.17,3.22,5,0h0Z"/>
  <path class="cls-1" d="M768.12,199.31c3.22,0,3.22-5,0-5s-3.22,5,0,5h0Z"/>
  <path class="cls-1" d="M23.76,49.72c-2.67-4.79-1.17-10.39,1.75-14.69,3.19-4.71,8.28-7.82,13.6-9.62,11.47-3.87,23.86-1.92,35.17,1.52,12.69,3.86,24.83,9.22,37.95,11.61,12.62,2.29,25.79,2.68,38.45,.48,5.62-.97,11.15-2.57,16.29-5.05,5.41-2.61,9.95-6.28,14.07-10.61s8.15-8.66,13.25-11.93c4.6-2.94,9.64-5.11,14.9-6.56,23.85-6.62,48.12,1.49,69.05,13,11.06,6.08,21.39,13.4,32.55,19.3,10.48,5.53,22.31,10.2,34.38,9.07,2.88-.27,5.7-.86,8.45-1.75,1.52-.5,.87-2.91-.66-2.41-12.25,3.99-24.91,.65-36.2-4.7s-22.22-13.07-33.4-19.49C262.32,5.78,238.32-3.44,213.73,1.24c-10.95,2.09-21.28,7-29.24,14.88-4.52,4.48-8.48,9.46-13.88,12.95-5.05,3.27-10.74,5.39-16.59,6.74-12.84,2.96-26.64,2.76-39.59,.59s-25.91-7.69-38.9-11.7c-11.35-3.5-23.68-5.54-35.34-2.23-9.79,2.77-20.13,10.45-20.35,21.58-.05,2.45,.57,4.81,1.76,6.94,.78,1.41,2.94,.15,2.16-1.26h0Z"/>
  <path class="cls-1" d="M72.96,711.04c-6.32-23.18,1.32-48.97,19.39-64.85,19.69-17.31,46.94-21.58,71.97-25.16,14.23-2.04,28.56-4,42.33-8.27,10.7-3.32,20.97-8.01,30.57-13.78,19.59-11.77,36.32-27.9,49.93-46.19,14.01-18.83,23.85-39.91,32.64-61.56,8.9-21.93,17.02-44.39,29.29-64.73,5.98-9.91,12.97-19.23,21.27-27.32,8.77-8.53,18.91-15.46,29.43-21.63,20.65-12.11,42.97-21.56,61.98-36.33,37.78-29.36,51.92-77.01,61.56-121.86,1.22-5.7,2.39-11.4,3.54-17.11,.32-1.57-2.09-2.24-2.41-.66-9.14,45.38-19.61,95.37-54.13,128.92-17.61,17.11-40.14,27.48-61.45,39.07-10.59,5.76-21.02,11.9-30.53,19.35s-17.1,15.6-23.93,24.98c-27.9,38.36-36.13,87-61.81,126.67-12.74,19.68-28.9,37.38-48.2,50.79-9.64,6.7-20.07,12.33-31.06,16.46-12.77,4.8-26.19,7.33-39.65,9.34-25.4,3.81-52.27,6.37-74.39,20.68-19.44,12.58-31.31,34.16-31.06,57.4,.06,5.56,.85,11.09,2.31,16.46,.42,1.55,2.83,.89,2.41-.66h0Z"/>
  <path class="cls-1" d="M96.46,726.38c-6.01-9.73-7.4-21.71-4.41-32.7,3.23-11.9,11.49-20.81,22.36-26.35,11.72-5.97,25.12-8.31,37.93-10.7,14.12-2.63,28.33-4.77,42.41-7.65,24.89-5.09,48.61-13.26,70.03-27.11,19.2-12.41,36.04-28.27,50.33-46.07,14.54-18.1,26.55-38.17,36.13-59.3,4.99-11.01,9.13-22.32,13.09-33.73,4.3-12.4,9.08-24.55,16.97-35.15,13.38-17.98,32.74-30.26,51.64-41.7,19.81-11.99,39.97-23.58,56.55-39.98,19.31-19.09,34.62-42.21,50.16-64.35,15.81-22.53,30.97-45.76,41.97-71.08,2.6-5.98,4.96-12.06,7.05-18.24,.52-1.53-1.9-2.18-2.41-.66-9.03,26.62-23.22,51.04-38.84,74.29-7.7,11.47-15.76,22.7-23.81,33.92-8.1,11.28-16.25,22.55-25.35,33.06-8.6,9.92-18.07,18.96-28.66,26.74-9.24,6.78-19.03,12.77-28.84,18.68-18.86,11.36-38.43,22.55-53.71,38.67-8.1,8.54-14.46,18.32-19.1,29.14-5.22,12.19-8.85,24.98-13.8,37.28-8.77,21.81-20.08,42.67-33.94,61.67s-30.34,36.09-49.46,49.73c-20.62,14.72-43.65,24.3-68.28,29.96-13.99,3.22-28.18,5.45-42.32,7.93-13.12,2.3-26.6,4.42-39.15,9.07-10.95,4.05-21.15,10.58-27.09,20.9-5.26,9.14-7.04,20.16-5.17,30.51,.92,5.13,2.82,10.03,5.55,14.46,.84,1.37,3.01,.11,2.16-1.26h0Z"/>
  <path class="cls-1" d="M123.81,727.54c-5.38-9.31-2.06-20.6,4.33-28.51,7.32-9.05,18.41-13.1,29.49-15.42,11.77-2.47,23.78-3.47,35.52-6.14,11.38-2.58,22.54-6.1,33.39-10.39,43.62-17.22,81.75-46.12,115.41-78.32,17.85-17.08,34.29-35.55,46.88-56.89,11.83-20.06,20.92-41.63,33.29-61.38,6.14-9.81,13.13-19.09,21.41-27.21s18.04-15.4,27.83-22.07c19.11-13.03,39.35-24.78,55.64-41.43,17.01-17.39,29.5-38.51,41.56-59.46,13.93-24.2,27.82-48.42,41.74-72.62,3.46-6.01,6.91-12.03,10.37-18.04,.8-1.4-1.36-2.66-2.16-1.26-14.15,24.63-28.31,49.26-42.46,73.89-12.76,22.21-24.95,45.17-41.26,65.05-7.63,9.3-16.23,17.63-25.73,25.01s-19.46,13.78-29.4,20.34c-19.39,12.78-37.99,26.24-51.93,45.11-13.84,18.74-23.28,40.18-34.22,60.62-5.69,10.65-11.86,21.02-19.06,30.72-7.75,10.45-16.48,20.16-25.63,29.4-33.56,33.88-72.3,64.55-116.38,83.45-11,4.71-22.35,8.65-33.94,11.63s-23.11,4.45-34.78,6.36c-11.14,1.82-22.94,4.56-31.9,11.84-7.26,5.89-12.76,14.9-13.23,24.38-.22,4.44,.84,8.77,3.06,12.61,.8,1.39,2.97,.14,2.16-1.26h0Z"/>
  <path class="cls-1" d="M150.5,730.92c-4.08-2.69-4.63-7.97-3.27-12.33,1.53-4.92,5.61-8.14,10.18-10.16,5.05-2.23,10.61-3.13,15.99-4.2,5.66-1.13,11.31-2.27,16.95-3.46,22.47-4.72,44.87-10.07,66.62-17.49,21.3-7.27,42.03-16.56,60.82-29.04,19-12.61,35.51-28.49,50.01-46.03,14.44-17.48,26.98-36.43,38.91-55.68,12.64-20.4,24.26-41.67,39.36-60.41,14.7-18.23,33.12-31.93,52.52-44.76,18.91-12.51,38.22-24.66,54.3-40.82,31.1-31.24,49.48-72.3,65.7-112.63,2.03-5.04,4.03-10.09,6.02-15.15,.59-1.5-1.83-2.15-2.41-.66-16.42,41.6-33.48,84.6-63.47,118.56-15.36,17.39-34.07,30.57-53.35,43.24-19.23,12.65-38.69,25.32-54.27,42.48-16.17,17.82-28.2,38.82-40.66,59.27-12.23,20.09-24.84,40.03-39.39,58.54-14.25,18.13-30.43,34.89-49.28,48.27-18.98,13.47-40.18,23.49-62.08,31.21s-44.29,13.2-66.87,18.01c-5.78,1.23-11.56,2.41-17.35,3.57-5.34,1.07-10.8,1.92-15.96,3.68-8.47,2.88-16.21,9.33-15.42,19.11,.3,3.71,2.01,6.95,5.14,9.02,1.35,.89,2.6-1.28,1.26-2.16h0Z"/>
</svg>