<svg width="32" height="32" viewBox="0 0 32 32" fill="none" xmlns="http://www.w3.org/2000/svg">
<path d="M16 0C11.7575 0 7.685 1.68675 4.6875 4.68625C1.68693 7.68696 0.000858621 11.7565 0 16C0 20.2417 1.6875 24.3142 4.6875 27.3137C7.685 30.3132 11.7575 32 16 32C20.2425 32 24.315 30.3132 27.3125 27.3137C30.3125 24.3142 32 20.2417 32 16C32 11.7583 30.3125 7.68575 27.3125 4.68625C24.315 1.68675 20.2425 0 16 0Z" fill="url(#paint0_linear_234_407)"/>
<path d="M7.19428 16.1992C11.8593 14.1672 14.9693 12.8276 16.5243 12.1802C20.9693 10.332 21.8918 10.011 22.4943 10.0001C22.6268 9.99797 22.9218 10.0307 23.1143 10.1863C23.2743 10.3176 23.3193 10.4951 23.3418 10.6197C23.3618 10.7442 23.3893 11.028 23.3668 11.2495C23.1268 13.7795 22.0843 19.919 21.5543 22.7527C21.3318 23.9517 20.8893 24.3537 20.4618 24.393C19.5318 24.4785 18.8268 23.779 17.9268 23.1892C16.5193 22.266 15.7243 21.6915 14.3568 20.7907C12.7768 19.7497 13.8018 19.1775 14.7018 18.2425C14.9368 17.9977 19.0318 14.274 19.1093 13.9362C19.1193 13.894 19.1293 13.7365 19.0343 13.6535C18.9418 13.5702 18.8043 13.5987 18.7043 13.6212C18.5618 13.6532 16.3143 15.1402 11.9543 18.082C11.3168 18.5205 10.7393 18.7342 10.2193 18.723C9.64928 18.7107 8.54928 18.4 7.73178 18.1345C6.73178 17.8087 5.93428 17.6365 6.00428 17.0832C6.03928 16.7952 6.43678 16.5005 7.19428 16.1992Z" fill="white"/>
<defs>
<linearGradient id="paint0_linear_234_407" x1="1600" y1="0" x2="1600" y2="3200" gradientUnits="userSpaceOnUse">
<stop stop-color="#2AABEE"/>
<stop offset="1" stop-color="#229ED9"/>
</linearGradient>
</defs>
</svg>
