<svg width="178" height="189" viewBox="0 0 178 189" fill="none" xmlns="http://www.w3.org/2000/svg">
<path d="M172.235 22.9952L91.3261 0.319124C90.1182 -0.0196269 88.8421 -0.0898617 87.5999 0.114027C86.3577 0.317916 85.1838 0.79028 84.1717 1.49341C83.1597 2.19655 82.3376 3.11097 81.7711 4.1637C81.2047 5.21643 80.9094 6.3783 80.9091 7.55656V109.844C72.623 102.921 62.0443 98.8635 50.941 98.351C39.8377 97.8385 28.8824 100.902 19.9062 107.029C10.9299 113.156 4.47659 121.975 1.62466 132.013C-1.22726 142.051 -0.304962 152.7 4.23741 162.179C8.77979 171.658 16.667 179.393 26.5809 184.092C36.4949 188.791 47.8348 190.169 58.7055 187.996C69.5762 185.822 79.319 180.229 86.3057 172.15C93.2923 164.072 97.0995 153.998 97.0909 143.613V63.0656L167.583 82.8221C168.791 83.1609 170.067 83.2311 171.309 83.0272C172.551 82.8233 173.725 82.351 174.737 81.6478C175.749 80.9447 176.571 80.0303 177.138 78.9775C177.704 77.9248 178 76.7629 178 75.5847V30.2326C178 28.6076 177.438 27.026 176.4 25.7223C175.362 24.4187 173.901 23.4624 172.235 22.9952Z" fill="#B828D2" fill-opacity="0.19"/>
</svg>
